<svg width="34" height="34" viewBox="0 0 34 34" fill="none" xmlns="http://www.w3.org/2000/svg">
<path d="M17.8788 16.4127C18.3305 16.6735 18.3305 17.3254 17.8788 17.5862L11.4422 21.3024C10.9905 21.5631 10.4259 21.2372 10.4259 20.7156V13.2833C10.4259 12.7617 10.9905 12.4357 11.4422 12.6965L17.8788 16.4127Z" fill="#787878"/>
<path d="M5.66675 6.375C3.31954 6.375 1.41675 8.27779 1.41675 10.625V23.375C1.41675 25.7222 3.31954 27.625 5.66675 27.625H21.2501C23.5973 27.625 25.5001 25.7222 25.5001 23.375V20.3929L32.0045 24.8433C32.8507 25.4222 33.9994 24.8163 33.9994 23.791V10.2088C33.9994 9.18352 32.8507 8.57758 32.0045 9.15656L25.5001 13.6069V10.625C25.5001 8.27779 23.5973 6.375 21.2501 6.375H5.66675ZM4.25008 10.625C4.25008 9.8426 4.88434 9.20833 5.66675 9.20833H21.2501C22.0325 9.20833 22.6667 9.8426 22.6667 10.625V23.375C22.6667 24.1574 22.0325 24.7917 21.2501 24.7917H5.66675C4.88434 24.7917 4.25008 24.1574 4.25008 23.375V10.625ZM31.1661 20.8366L25.5587 16.9999L31.1661 13.1632V20.8366Z" fill="#787878"/>
</svg>
